<?xml version="1.0" encoding="UTF-8"?>
<svg width="1920px" height="555px" viewBox="0 0 1920 555" version="1.1" xmlns="http://www.w3.org/2000/svg" xmlns:xlink="http://www.w3.org/1999/xlink">
    <!-- Generator: Sketch 48 (47235) - http://www.bohemiancoding.com/sketch -->
    <title>bg</title>
    <desc>Created with Sketch.</desc>
    <defs>
        <rect id="path-1" x="230" y="0" width="1920" height="555"></rect>
        <rect id="path-3" x="0" y="0" width="1920" height="558"></rect>
        <linearGradient x1="3.061617e-15%" y1="50%" x2="97.652264%" y2="50%" id="linearGradient-5">
            <stop stop-color="#FFFFFF" stop-opacity="0" offset="0%"></stop>
            <stop stop-color="#FFFFFF" stop-opacity="0.5" offset="100%"></stop>
        </linearGradient>
        <linearGradient x1="14.6446609%" y1="14.6446609%" x2="83.695239%" y2="83.695239%" id="linearGradient-6">
            <stop stop-color="#FFFFFF" stop-opacity="0" offset="0%"></stop>
            <stop stop-color="#FFFFFF" stop-opacity="0.5" offset="100%"></stop>
        </linearGradient>
        <linearGradient x1="13.0184169%" y1="26.675437%" x2="85.0520796%" y2="77.3120465%" id="linearGradient-7">
            <stop stop-color="#FFFFFF" stop-opacity="0" offset="0%"></stop>
            <stop stop-color="#00ADFE" offset="100%"></stop>
        </linearGradient>
        <linearGradient x1="23.6979198%" y1="13.0925039%" x2="105.664045%" y2="100%" id="linearGradient-8">
            <stop stop-color="#8C30FF" stop-opacity="0" offset="0%"></stop>
            <stop stop-color="#000000" offset="100%"></stop>
        </linearGradient>
    </defs>
    <g id="ENG-Dekstop-HD-/-Games" stroke="none" stroke-width="1" fill="none" fill-rule="evenodd">
        <g id="We're-working-on" transform="translate(-230.000000, 0.000000)">
            <g id="bg">
                <mask id="mask-2" fill="white">
                    <use xlink:href="#path-1"></use>
                </mask>
                <g id="Rectangle"></g>
                <g id="Background" mask="url(#mask-2)">
                    <g transform="translate(231.000000, 0.000000)">
                        <mask id="mask-4" fill="white">
                            <use xlink:href="#path-3"></use>
                        </mask>
                        <use id="Back" stroke="none" fill="#E7F7FF" fill-rule="evenodd" xlink:href="#path-3"></use>
                        <g id="Visual" stroke="none" stroke-width="1" fill="none" fill-rule="evenodd" mask="url(#mask-4)">
                            <g transform="translate(127.000000, -56.000000)">
                                <rect id="Rectangle-4" fill="url(#linearGradient-5)" transform="translate(490.589358, 295.908054) rotate(-315.000000) translate(-490.589358, -295.908054) " x="402.089358" y="288.435392" width="177" height="14.9453237" rx="7.47266187"></rect>
                                <path d="M351.161528,13.6166042 L555.14195,192.943277 C561.126761,198.204744 561.126761,206.735268 555.14195,211.996736 C549.157138,217.258203 539.453842,217.258203 533.46903,211.996736 L329.488609,32.6700631 C323.503797,27.4085957 323.503797,18.8780716 329.488609,13.6166042 C335.47342,8.35513675 345.176717,8.35513675 351.161528,13.6166042 Z" id="Rectangle-4-Copy-5" fill="url(#linearGradient-6)" opacity="0.381057518"></path>
                                <rect id="Rectangle-4-Copy-7" fill="url(#linearGradient-5)" opacity="0.134737319" transform="translate(669.589358, 429.536831) rotate(-315.000000) translate(-669.589358, -429.536831) " x="581.089358" y="422.064169" width="177" height="14.9453237" rx="7.47266187"></rect>
                                <rect id="Rectangle-4-Copy-3" fill="url(#linearGradient-5)" transform="translate(1283.000000, 234.729496) rotate(-315.000000) translate(-1283.000000, -234.729496) " x="1231" y="230.333813" width="104" height="8.79136691" rx="4.39568345"></rect>
                                <rect id="Rectangle-4-Copy" fill="url(#linearGradient-5)" transform="translate(1212.941125, 346.328097) rotate(-315.000000) translate(-1212.941125, -346.328097) " x="1168.94113" y="342.811551" width="88" height="7.03309353" rx="3.51654676"></rect>
                                <path d="M269.311307,78.3418806 L371.301518,168.005217 C374.1179,170.481202 374.1179,174.495566 371.301518,176.97155 C368.485136,179.447535 363.918879,179.447535 361.102497,176.97155 L259.112286,87.3082142 C256.295905,84.8322295 256.295905,80.8178652 259.112286,78.3418806 C261.928668,75.8658959 266.494926,75.8658959 269.311307,78.3418806 Z" id="Rectangle-4-Copy-8" fill="url(#linearGradient-6)"></path>
                                <path d="M804.311307,1.8569885 L906.301518,91.5203248 C909.1179,93.9963094 909.1179,98.0106737 906.301518,100.486658 C903.485136,102.962643 898.918879,102.962643 896.102497,100.486658 L794.112286,10.8233221 C791.295905,8.34733746 791.295905,4.33297316 794.112286,1.8569885 C796.928668,-0.618996166 801.494926,-0.618996166 804.311307,1.8569885 Z" id="Rectangle-4-Copy-12" fill="url(#linearGradient-6)"></path>
                                <rect id="Rectangle-4-Copy-4" fill="url(#linearGradient-5)" transform="translate(1194.547727, 396.093038) rotate(-315.000000) translate(-1194.547727, -396.093038) " x="1137.04773" y="391.257786" width="115" height="9.6705036" rx="4.8352518"></rect>
                                <path d="M222.928048,152.885733 L355.515322,269.44807 C359.387847,272.852549 359.387847,278.3723 355.515322,281.776779 C351.642797,285.181258 345.364193,285.181258 341.491668,281.776779 L208.904394,165.214442 C205.031869,161.809963 205.031869,156.290212 208.904394,152.885733 C212.776919,149.481254 219.055523,149.481254 222.928048,152.885733 Z" id="Rectangle-4-Copy-9" fill="url(#linearGradient-6)"></path>
                                <path d="M1370.92805,37.7188268 L1503.51532,154.281164 C1507.38785,157.685643 1507.38785,163.205394 1503.51532,166.609873 C1499.6428,170.014352 1493.36419,170.014352 1489.49167,166.609873 L1356.90439,50.0475355 C1353.03187,46.6430566 1353.03187,41.1233057 1356.90439,37.7188268 C1360.77692,34.3143479 1367.05552,34.3143479 1370.92805,37.7188268 Z" id="Rectangle-4-Copy-13" fill="url(#linearGradient-6)"></path>
                                <rect id="Rectangle-4-Copy-6" fill="url(#linearGradient-5)" transform="translate(1068.305087, 489.947349) rotate(-315.000000) translate(-1068.305087, -489.947349) " x="1016.30509" y="485.551666" width="104" height="8.79136691" rx="4.39568345"></rect>
                                <path d="M62.3891344,195.731308 L182.227632,301.085728 C185.748109,304.180709 185.748109,309.198664 182.227632,312.293645 C178.707155,315.388626 172.999333,315.388626 169.478856,312.293645 L49.640358,206.939225 C46.1198807,203.844244 46.1198807,198.826288 49.640358,195.731308 C53.1608354,192.636327 58.868657,192.636327 62.3891344,195.731308 Z" id="Rectangle-4-Copy-10" fill="url(#linearGradient-6)"></path>
                                <path d="M1210.38913,80.5644011 L1330.22763,185.918821 C1333.74811,189.013802 1333.74811,194.031757 1330.22763,197.126738 C1326.70715,200.221719 1320.99933,200.221719 1317.47886,197.126738 L1197.64036,91.7723181 C1194.11988,88.6773373 1194.11988,83.6593819 1197.64036,80.5644011 C1201.16084,77.4694203 1206.86866,77.4694203 1210.38913,80.5644011 Z" id="Rectangle-4-Copy-14" fill="url(#linearGradient-6)"></path>
                                <rect id="Rectangle-4-Copy-2" fill="url(#linearGradient-5)" transform="translate(1436.500000, 291.873381) rotate(-315.000000) translate(-1436.500000, -291.873381) " x="1370" y="286.598561" width="133" height="10.5496403" rx="5.27482014"></rect>
                                <ellipse id="Oval-Copy-8" fill="url(#linearGradient-7)" opacity="0.207144475" cx="583.5" cy="477.810791" rx="92.5" ry="81.3201439"></ellipse>
                                <ellipse id="Oval-Copy-16" fill="url(#linearGradient-7)" opacity="0.207144475" cx="92.5" cy="369.676978" rx="92.5" ry="81.3201439"></ellipse>
                                <ellipse id="Oval-Copy-10" fill="url(#linearGradient-7)" opacity="0.207144475" cx="1507" cy="356.929496" rx="62" ry="54.5064748"></ellipse>
                                <ellipse id="Oval-Copy-11" fill="url(#linearGradient-7)" opacity="0.207144475" cx="1459.5" cy="235.169065" rx="29.5" ry="25.9345324"></ellipse>
                                <ellipse id="Oval-Copy-14" fill="url(#linearGradient-7)" opacity="0.207144475" cx="1103.5" cy="480.448201" rx="29.5" ry="25.9345324"></ellipse>
                                <ellipse id="Oval-Copy-17" fill="url(#linearGradient-7)" opacity="0.207144475" cx="893.5" cy="585.065468" rx="29.5" ry="25.9345324"></ellipse>
                                <ellipse id="Oval-Copy-15" fill="url(#linearGradient-7)" opacity="0.207144475" cx="431.5" cy="369.676978" rx="38.5" ry="33.8467626"></ellipse>
                                <ellipse id="Oval-Copy" fill="url(#linearGradient-8)" cx="1359.5" cy="488.360432" rx="89.5" ry="78.6827338"></ellipse>
                            </g>
                        </g>
                    </g>
                </g>
                <g id="Clouds" mask="url(#mask-2)" fill="#FFFFFF">
                    <g transform="translate(0.000000, 198.000000)">
                        <path d="M1247.49936,428.16243 C1238.68,433.759077 1228.21848,437 1217,437 C1200.41861,437 1185.49087,429.919842 1175.07507,418.617793 C1166.78786,423.317013 1157.20725,426 1147,426 C1130.44558,426 1115.53944,418.942855 1105.12593,407.672907 C1091.9661,419.090167 1074.78999,426 1056,426 C1034.10707,426 1014.40505,416.619576 1000.6939,401.658687 C981.756184,416.886999 957.69232,426 931.5,426 C906.895483,426 884.169186,417.958387 865.806011,404.360063 C844.166342,418.065458 818.509777,426 791,426 C751.757828,426 716.28666,409.854414 690.866971,383.843716 C660.460151,410.112215 620.835471,426 577.5,426 C522.432031,426 473.356141,400.344857 441.572571,360.334813 C408.219683,385.248636 366.832524,400 322,400 C288.910526,400 257.697898,391.964267 230.207128,377.737812 C214.127177,382.464192 197.109724,385 179.5,385 C80.3648874,385 0,304.635113 0,205.5 C0,106.364887 80.3648874,26 179.5,26 C192.285569,26 204.758922,27.3367538 216.787923,29.8781256 C247.351712,10.9357395 283.398766,0 322,0 C395.933928,0 460.497922,40.1174524 495.111252,99.7716253 C519.621365,86.5218638 547.68227,79 577.5,79 C640.224327,79 695.17453,112.284982 725.651298,162.155636 C745.15903,151.84072 767.397428,146 791,146 C839.317599,146 881.918285,170.477014 907.07877,207.707755 C914.934969,205.935448 923.108242,205 931.5,205 C979.649627,205 1020.60638,235.796358 1035.74751,278.766329 C1042.18979,276.963828 1048.98234,276 1056,276 C1085.29341,276 1110.66438,292.794014 1123.01005,317.279201 C1130.30189,313.891273 1138.43008,312 1147,312 C1163.58139,312 1178.50913,319.080158 1188.92493,330.382207 C1197.21214,325.682987 1206.79275,323 1217,323 C1235.28465,323 1251.55846,331.609428 1261.98878,344.995627 C1265.05625,344.343259 1268.23804,344 1271.5,344 C1296.62896,344 1317,364.371044 1317,389.5 C1317,414.628956 1296.62896,435 1271.5,435 C1262.69088,435 1254.46647,432.496607 1247.49936,428.162433 Z" id="Combined-Shape-Copy"></path>
                        <path d="M2311.49936,428.16243 C2302.68,433.759077 2292.21848,437 2281,437 C2264.41861,437 2249.49087,429.919842 2239.07507,418.617793 C2230.78786,423.317013 2221.20725,426 2211,426 C2194.44558,426 2179.53944,418.942855 2169.12593,407.672907 C2155.9661,419.090167 2138.78999,426 2120,426 C2098.10707,426 2078.40505,416.619576 2064.6939,401.658687 C2045.75618,416.886999 2021.69232,426 1995.5,426 C1970.89548,426 1948.16919,417.958387 1929.80601,404.360063 C1908.16634,418.065458 1882.50978,426 1855,426 C1815.75783,426 1780.28666,409.854414 1754.86697,383.843716 C1724.46015,410.112215 1684.83547,426 1641.5,426 C1586.43203,426 1537.35614,400.344857 1505.57257,360.334813 C1472.21968,385.248636 1430.83252,400 1386,400 C1352.91053,400 1321.6979,391.964267 1294.20713,377.737812 C1278.12718,382.464192 1261.10972,385 1243.5,385 C1144.36489,385 1064,304.635113 1064,205.5 C1064,106.364887 1144.36489,26 1243.5,26 C1256.28557,26 1268.75892,27.3367538 1280.78792,29.8781256 C1311.35171,10.9357395 1347.39877,0 1386,0 C1459.93393,0 1524.49792,40.1174524 1559.11125,99.7716253 C1583.62137,86.5218638 1611.68227,79 1641.5,79 C1704.22433,79 1759.17453,112.284982 1789.6513,162.155636 C1809.15903,151.84072 1831.39743,146 1855,146 C1903.3176,146 1945.91829,170.477014 1971.07877,207.707755 C1978.93497,205.935448 1987.10824,205 1995.5,205 C2043.64963,205 2084.60638,235.796358 2099.74751,278.766329 C2106.18979,276.963828 2112.98234,276 2120,276 C2149.29341,276 2174.66438,292.794014 2187.01005,317.279201 C2194.30189,313.891273 2202.43008,312 2211,312 C2227.58139,312 2242.50913,319.080158 2252.92493,330.382207 C2261.21214,325.682987 2270.79275,323 2281,323 C2299.28465,323 2315.55846,331.609428 2325.98878,344.995627 C2329.05625,344.343259 2332.23804,344 2335.5,344 C2360.62896,344 2381,364.371044 2381,389.5 C2381,414.628956 2360.62896,435 2335.5,435 C2326.69088,435 2318.46647,432.496607 2311.49936,428.162433 Z" id="Combined-Shape-Copy-2" transform="translate(1722.500000, 218.500000) scale(-1, 1) translate(-1722.500000, -218.500000) "></path>
                    </g>
                </g>
            </g>
        </g>
    </g>
</svg>